<?xml version="1.0" encoding="utf-8"?>
<!-- Generator: Adobe Illustrator 25.0.1, SVG Export Plug-In . SVG Version: 6.00 Build 0)  -->
<svg version="1.1" id="Layer_1" xmlns="http://www.w3.org/2000/svg" xmlns:xlink="http://www.w3.org/1999/xlink" x="0px" y="0px"
	 viewBox="0 0 99 99" style="enable-background:new 0 0 99 99;" xml:space="preserve">
<style type="text/css">
	.st0{fill:#5DD39E;stroke:#FFFFFF;stroke-miterlimit:10;}
	.st1{fill:#BCE784;stroke:#FFFFFF;stroke-width:3;stroke-miterlimit:10;}
</style>
<g id="Layer_2_1_">
	<g id="Layer_1-2">
		<path class="st0" d="M94.6,54.2c-1.1,2.1-2.3,4.2-3.6,6c-12.2,16.3-35.6,19.2-52.3,6.5s-20.3-35.8-8.1-52c1.4-1.8,3-3.6,4.8-5.1
			c-8.9,2.6-16.7,8-22.3,15.3C-1.6,44.5,2.7,72.6,22.9,87.6s48.3,11.7,63-7.8C91.5,72.6,94.6,63.6,94.6,54.2z"/>
		<path class="st1" d="M6.5,39.6c10.4-16.9,32.5-22,49.2-11.4s22,32.3,11.6,49.2c-2.4,3.9-5.6,7.4-9.3,10.1
			c23.3-4.8,38.4-27.5,33.6-51C86.8,13.2,64-1.9,40.6,2.8C22.6,6.5,8.9,21.3,6.5,39.6z"/>
	</g>
</g>
</svg>
