<?xml version="1.0" encoding="utf-8"?>
<!-- Generator: Adobe Illustrator 25.0.1, SVG Export Plug-In . SVG Version: 6.00 Build 0)  -->
<svg version="1.1" id="Layer_1" xmlns="http://www.w3.org/2000/svg" xmlns:xlink="http://www.w3.org/1999/xlink" x="0px" y="0px"
	 viewBox="0 0 340.5 97.1" style="enable-background:new 0 0 340.5 97.1;" xml:space="preserve">
<style type="text/css">
	.st0{fill:#5DD39E;}
	.st1{fill:#5DD39E;stroke:#FFFFFF;stroke-miterlimit:10;}
	.st2{fill:#BCE784;stroke:#FFFFFF;stroke-width:3;stroke-miterlimit:10;}
</style>
<g id="Layer_2_1_">
	<g id="Layer_1-2">
		<path class="st0" d="M174.7,52.5v21.4h-6.2V52.5h-3.3v-5.3h3.3v-15l6.2-3.8v18.8h3.3v5.4L174.7,52.5z"/>
		<path class="st0" d="M189,74h-6.2V15h6.2v34.9c2.3-2.3,5.3-3.5,8.4-3.5c5.1-0.3,9.3,3.6,9.6,8.7c0,0.5,0,0.9,0,1.2v17.5h-6.2V58.2
			c0-4.7-2.7-6.3-5.9-6.3c-3.3,0-5.9,2.6-6,5.9L189,74L189,74z"/>
		<path class="st0" d="M252.8,72.6h-6.1V46h5.9v5.7c1.1-2.1,3.8-5.7,7.7-5.7h0.9v7.2c-0.5-0.2-0.9-0.2-1.4-0.2
			c-4.2,0-6.9,3.2-6.9,5.4L252.8,72.6L252.8,72.6z"/>
		<path class="st0" d="M337.2,74H331V15h6.2V74z"/>
		<path class="st0" d="M134.7,60.6c-0.9-7.8,4.5-14.9,12.3-15.8c0.8-0.2,1.5-0.2,2.1-0.2c6.2-0.2,11.7,3.9,13.5,9.9l0.6,1.7l-21.1,8
			c1.7,2.9,4.8,4.5,8.1,4.4c3.5,0,6.6-1.4,9-3.8l3.2,4.1c-3.3,3.3-7.8,5.1-12.6,5C142.1,74.5,135.3,68.6,134.7,60.6z M141.2,59.3
			l14.9-5.6c-1.5-2.4-4.1-3.8-6.8-3.8C144.8,50.1,141.3,53.7,141.2,59.3L141.2,59.3z"/>
		<path class="st0" d="M212.5,60.6c-0.9-7.8,4.5-14.9,12.3-15.8c0.8-0.2,1.4-0.2,2.1-0.2c6.2-0.2,11.7,3.9,13.5,9.9l0.6,1.7l-21.1,8
			c1.7,2.9,4.8,4.5,8.1,4.4c3.5,0,6.6-1.4,9-3.8l3.2,4.1c-3.3,3.3-7.8,5.1-12.6,5C219.9,74.5,213.3,68.4,212.5,60.6z M219,59.3
			l14.9-5.6c-1.5-2.4-4.1-3.8-6.9-3.8C222.7,50.1,219.1,53.7,219,59.3L219,59.3z"/>
		<path class="st0" d="M262.9,60.6c-0.9-7.8,4.5-14.9,12.3-15.8c0.8-0.2,1.5-0.2,2.1-0.2c6.2-0.2,11.7,3.9,13.5,9.9l0.6,1.7l-21.1,8
			c1.7,2.9,4.8,4.5,8.1,4.4c3.5,0,6.6-1.4,9-3.8l3.2,4.1c-3.3,3.3-7.8,5.1-12.6,5C270.3,74.5,263.5,68.6,262.9,60.6z M269.2,59.3
			l14.9-5.6c-1.5-2.4-4.1-3.8-6.8-3.8C273,50.1,269.4,53.7,269.2,59.3L269.2,59.3z"/>
		<path class="st0" d="M325,74h-6.2V45.4h6.2V74z"/>
		<path class="st0" d="M318.9,69c-2.7,2.9-6.3,4.7-10.2,5c-6.9,0.6-13.1-4.5-13.7-11.4c0-0.3,0-0.5,0-0.8c-0.9-8.1,5-15.5,13.1-16.4
			c4.1-0.5,8.1,1.1,11,4.1L318.9,69z M309.9,50.7c-5.1,0.5-8.7,5-8.4,9.9c0.2,4.4,3.9,7.8,8.4,7.7c0.2,0,0.2,0,0.3,0
			c5-0.6,8.7-5,8.6-10.1C318.4,53.8,314.5,50.4,309.9,50.7L309.9,50.7z"/>
		<path class="st1" d="M91.4,54.2c-1.1,2.1-2.3,4.2-3.6,6c-12.2,16.3-35.6,19.2-52.3,6.5s-20.3-35.8-8.1-52c1.4-1.8,3-3.6,4.8-5.1
			c-8.9,2.6-16.7,8-22.3,15.3C-4.8,44.5-0.5,72.6,19.7,87.6s48.3,11.7,63-7.8C88.3,72.6,91.4,63.6,91.4,54.2z"/>
		<path class="st2" d="M3.3,39.6c10.4-16.9,32.5-22,49.2-11.4s22,32.3,11.6,49.2c-2.4,3.9-5.6,7.4-9.3,10.1
			c23.3-4.8,38.4-27.5,33.6-51c-4.8-23.3-27.6-38.4-51-33.7C19.4,6.5,5.7,21.3,3.3,39.6z"/>
	</g>
</g>
<path class="st0" d="M129,74h-6.2V45.4h6.2V74z"/>
<path class="st0" d="M122.9,69c-2.7,2.9-6.3,4.7-10.2,5c-6.9,0.6-13.1-4.5-13.7-11.4c0-0.3,0-0.5,0-0.8c-0.9-8.1,5-15.5,13.1-16.4
	c4.1-0.5,8.1,1.1,11,4.1L122.9,69z M113.9,50.7c-5.1,0.5-8.7,5-8.4,9.9c0.2,4.4,3.9,7.8,8.4,7.7c0.2,0,0.2,0,0.3,0
	c5-0.6,8.7-5,8.6-10.1C122.4,53.8,118.5,50.4,113.9,50.7L113.9,50.7z"/>
</svg>
